<svg width="216" height="45" viewBox="0 0 216 45" fill="none" xmlns="http://www.w3.org/2000/svg">
<path d="M14.88 32.92C14.32 33.08 13.7867 33.16 13.28 33.16C12.7733 33.1867 12.2533 33.2133 11.72 33.24C11.2133 33.2667 10.5067 33.28 9.6 33.28C8.69333 33.28 7.33333 33.2533 5.52 33.2C5.09333 33.2267 4.66667 33.24 4.24 33.24C3.81333 33.24 3.41333 33.16 3.04 33C2.21333 32.6533 1.65333 31.8533 1.36 30.6C1.22667 30.0133 1.08 29.6 0.92 29.36C0.733333 29.12 0.586667 28.8933 0.48 28.68C0.213333 28.2533 0.24 27.5467 0.56 26.56C0.853333 25.5733 1.24 24.36 1.72 22.92C2.2 21.4533 2.74667 19.9067 3.36 18.28C4.8 14.4133 6.09333 11.3467 7.24 9.08C7.69333 8.06667 8.08 7.18667 8.4 6.44C8.74667 5.69333 9.05333 5.05333 9.32 4.52C9.58667 3.96 9.72 3.66667 9.72 3.64C9.98667 2.62666 11.0133 1.77333 12.8 1.08C14.5333 0.359999 16.1067 0.173332 17.52 0.519999C19.0933 0.919999 19.7867 1.96 19.6 3.64C19.2267 5.29333 18.6667 6.94667 17.92 8.6C17.2 10.2533 16.3733 11.9867 15.44 13.8C14.5067 15.6133 13.4933 17.5333 12.4 19.56C11.3067 21.5867 10.2267 23.7867 9.16 26.16C9.13333 26.2667 9.18667 26.36 9.32 26.44C9.66667 26.4133 10.1467 26.3067 10.76 26.12C11.4 25.9333 12.0533 25.7733 12.72 25.64C13.4133 25.48 14.0933 25.4 14.76 25.4C15.4267 25.4 15.9867 25.5733 16.44 25.92C16.4133 26.4 16.5333 26.7867 16.8 27.08C17.0667 27.3467 17.3333 27.6133 17.6 27.88C18.2667 28.5733 18.32 29.4933 17.76 30.64C17.2267 31.76 16.2667 32.52 14.88 32.92ZM24.9519 13.68C25.2985 12.8 26.1252 12.2 27.4319 11.88C28.6585 11.56 29.8052 11.6 30.8719 12C31.9652 12.4267 32.4585 13.12 32.3519 14.08C32.0585 15.0133 31.6852 16.16 31.2319 17.52C30.8052 18.8533 30.3919 20.2267 29.9919 21.64C28.9252 25.2667 28.3119 27.8267 28.1519 29.32C27.7519 31.72 27.0852 33.0133 26.1519 33.2C25.8852 33.2533 25.6319 33.2933 25.3919 33.32C24.8052 33.3467 24.4319 33.5067 24.2719 33.8C24.1119 34.0933 23.8452 34.3067 23.4719 34.44C23.0985 34.6 22.6852 34.6667 22.2319 34.64C21.8052 34.64 21.3652 34.5333 20.9119 34.32C20.4585 34.1333 20.0719 33.8533 19.7519 33.48C19.0052 32.5733 18.8585 31.36 19.3119 29.84C19.7385 26.9333 20.8185 23.24 22.5519 18.76C23.3785 16.5467 24.1785 14.8533 24.9519 13.68ZM32.5119 7.68C31.2052 7.94667 30.1385 7.86667 29.3119 7.44C28.5119 7.01333 28.0452 6.50667 27.9119 5.92C27.7785 5.30667 27.9652 4.68 28.4719 4.04C29.0585 3.24 29.9385 2.72 31.1119 2.48C31.6452 2.42666 32.0319 2.4 32.2719 2.4C32.5119 2.4 32.8052 2.45333 33.1519 2.56C34.0319 2.64 34.6052 3.02667 34.8719 3.72C35.2452 4.30667 35.2719 4.97333 34.9519 5.72C34.6585 6.46667 33.8452 7.12 32.5119 7.68ZM39.2034 13.68C40.9901 12.96 42.1901 12.9467 42.8034 13.64C43.1234 14.0133 43.2834 14.5333 43.2834 15.2V15.4C44.2701 14.2533 45.9901 13.2933 48.4434 12.52C51.0301 11.72 53.1634 11.4933 54.8434 11.84C57.0301 12.2933 58.2568 13.72 58.5234 16.12C58.7368 18.1467 58.2701 20.72 57.1234 23.84C56.7501 24.64 56.4568 25.2933 56.2434 25.8C56.0568 26.28 55.8834 26.72 55.7234 27.12C55.3768 27.8667 54.8301 28.76 54.0834 29.8C53.6568 30.6 52.9901 31.2133 52.0834 31.64C51.2034 32.0667 50.3234 32.3067 49.4434 32.36C48.5901 32.44 47.8834 32.3067 47.3234 31.96C46.7634 31.64 46.6034 31.12 46.8434 30.4C47.4568 28.7467 47.9634 27.24 48.3634 25.88C48.7634 24.52 49.1768 23.36 49.6034 22.4C50.0034 21.04 50.0568 20.1867 49.7634 19.84C49.5234 19.5733 49.1101 19.6133 48.5234 19.96C48.0168 20.28 47.6568 20.6533 47.4434 21.08C46.9634 21.4267 46.0568 22.8133 44.7234 25.24C44.3501 25.9067 43.9768 26.5733 43.6034 27.24C43.2568 27.88 42.9234 28.48 42.6034 29.04C42.3101 29.6 42.0434 30.0667 41.8034 30.44C41.5901 30.8133 41.3901 31.0533 41.2034 31.16C41.0434 31.2933 40.8968 31.3733 40.7634 31.4C40.6568 31.4533 40.5634 31.5067 40.4834 31.56C40.4034 31.6133 40.3368 31.7867 40.2834 32.08C40.1768 32.6933 39.5368 33.1467 38.3634 33.44C36.4701 33.92 34.7634 33.84 33.2434 33.2C32.7368 32.9867 32.3368 32.6933 32.0434 32.32C31.4301 31.0933 32.4834 26.92 35.2034 19.8C36.1634 17.2933 36.7901 15.8 37.0834 15.32C37.7501 14.3067 38.1768 13.7333 38.3634 13.6C38.5768 13.4667 38.8568 13.4933 39.2034 13.68ZM75.4172 15.04C75.8705 14.2133 76.4705 13.8 77.2172 13.8C78.3639 14.44 79.0839 15.48 79.3772 16.92C79.6705 18.36 79.3505 19.6533 78.4172 20.8C78.3905 20.8267 78.4039 21.0533 78.4572 21.48C78.9372 24.1467 78.7639 26.92 77.9372 29.8C77.6439 30.76 77.2972 31.6533 76.8972 32.48C76.5239 33.3067 76.0439 34.3467 75.4572 35.6C74.8972 36.8533 74.0972 38.0933 73.0572 39.32C72.0172 40.5467 70.8439 41.52 69.5372 42.24C66.7905 43.7867 63.7239 44.12 60.3372 43.24C59.1105 42.76 58.2572 42.2 57.7772 41.56C57.1639 40.7867 56.9505 39.96 57.1372 39.08C57.3239 37.9867 57.9639 37.3867 59.0572 37.28C59.5905 37.2267 60.2572 37.4267 61.0572 37.88C61.9639 38.0667 62.6972 38.0533 63.2572 37.84C63.8172 37.6267 64.2572 37.4267 64.5772 37.24C64.9239 37.08 65.3505 36.8667 65.8572 36.6C66.7372 36.1467 67.7372 35.1067 68.8572 33.48C69.4705 32.6267 70.0839 31.48 70.6972 30.04C69.7105 31.2933 68.1372 31.9067 65.9772 31.88C65.3639 31.8533 64.6705 31.8267 63.8972 31.8C63.1505 31.7733 62.4705 31.52 61.8572 31.04C61.2439 30.56 60.7505 29.9333 60.3772 29.16C60.0039 28.3867 59.7505 27.5067 59.6172 26.52C59.5105 25.5067 59.5105 24.48 59.6172 23.44C60.0439 19.8133 61.5639 16.9467 64.1772 14.84C65.9639 13.3733 67.8839 12.5867 69.9372 12.48C70.9239 12.4267 71.8572 12.5333 72.7372 12.8C73.8039 13.2 74.6972 13.9467 75.4172 15.04ZM70.5372 24.12C70.5372 24.04 70.5505 23.9733 70.5772 23.92C70.4439 23.8667 70.3105 23.8267 70.1772 23.8C70.0439 23.7467 69.8039 23.6667 69.4572 23.56C69.1105 23.4533 68.6439 23.52 68.0572 23.76C67.4705 23.9733 66.9505 24.28 66.4972 24.68C66.0705 25.0533 65.7239 25.4533 65.4572 25.88C65.2172 26.3067 65.1772 26.6667 65.3372 26.96C65.5239 27.2533 65.8439 27.3733 66.2972 27.32C66.7505 27.24 67.2439 27.04 67.7772 26.72C68.9505 26 69.8705 25.1333 70.5372 24.12ZM85.8969 13.92C86.4569 13.52 87.1502 13.4267 87.9769 13.64C88.1369 13.6667 88.2969 13.68 88.4569 13.68C89.0435 12.48 90.0569 11.8533 91.4969 11.8C91.8702 11.7733 92.3902 11.7067 93.0569 11.6C93.7235 11.4933 94.5235 11.52 95.4569 11.68C96.4169 11.84 97.2569 12.12 97.9769 12.52C99.5502 13.3733 100.497 14.6 100.817 16.2C101.457 18.5467 101.364 21.1067 100.537 23.88C99.6569 26.9467 98.1635 29.4 96.0569 31.24C95.0969 32.0933 94.0835 32.6267 93.0169 32.84C91.9502 33.08 90.9902 33.2133 90.1369 33.24C89.2835 33.2667 88.4969 33.2667 87.7769 33.24C87.0835 33.24 86.4035 33.1733 85.7369 33.04C84.2969 32.7467 83.1102 32.0667 82.1769 31C81.0835 29.8 80.6169 27.9333 80.7769 25.4C80.8835 23.16 81.4435 20.9067 82.4569 18.64C83.4969 16.3467 84.6435 14.7733 85.8969 13.92ZM92.9369 21.96C92.2702 22.1733 91.6435 22.2667 91.0569 22.24C90.7635 22.5333 90.4969 22.8533 90.2569 23.2C90.0435 23.52 89.7502 23.8267 89.3769 24.12C89.0035 24.3867 88.8169 24.4933 88.8169 24.44C88.3635 25.08 87.9902 25.7467 87.6969 26.44C87.4035 27.1067 87.4035 27.7867 87.6969 28.48C88.7635 28.5867 89.5502 28.56 90.0569 28.4C90.5635 28.24 91.0302 27.9333 91.4569 27.48C91.9102 27.0267 92.2569 26.4933 92.4969 25.88C92.9769 24.7333 93.1235 23.4267 92.9369 21.96ZM127.614 32.92C127.054 33.08 126.521 33.16 126.014 33.16C125.508 33.1867 124.988 33.2133 124.454 33.24C123.948 33.2667 123.241 33.28 122.334 33.28C121.428 33.28 120.068 33.2533 118.254 33.2C117.828 33.2267 117.401 33.24 116.974 33.24C116.548 33.24 116.148 33.16 115.774 33C114.948 32.6533 114.388 31.8533 114.094 30.6C113.961 30.0133 113.814 29.6 113.654 29.36C113.468 29.12 113.321 28.8933 113.214 28.68C112.948 28.2533 112.974 27.5467 113.294 26.56C113.588 25.5733 113.974 24.36 114.454 22.92C114.934 21.4533 115.481 19.9067 116.094 18.28C117.534 14.4133 118.828 11.3467 119.974 9.08C120.428 8.06667 120.814 7.18667 121.134 6.44C121.481 5.69333 121.788 5.05333 122.054 4.52C122.321 3.96 122.454 3.66667 122.454 3.64C122.721 2.62666 123.748 1.77333 125.534 1.08C127.268 0.359999 128.841 0.173332 130.254 0.519999C131.828 0.919999 132.521 1.96 132.334 3.64C131.961 5.29333 131.401 6.94667 130.654 8.6C129.934 10.2533 129.108 11.9867 128.174 13.8C127.241 15.6133 126.228 17.5333 125.134 19.56C124.041 21.5867 122.961 23.7867 121.894 26.16C121.868 26.2667 121.921 26.36 122.054 26.44C122.401 26.4133 122.881 26.3067 123.494 26.12C124.134 25.9333 124.788 25.7733 125.454 25.64C126.148 25.48 126.828 25.4 127.494 25.4C128.161 25.4 128.721 25.5733 129.174 25.92C129.148 26.4 129.268 26.7867 129.534 27.08C129.801 27.3467 130.068 27.6133 130.334 27.88C131.001 28.5733 131.054 29.4933 130.494 30.64C129.961 31.76 129.001 32.52 127.614 32.92ZM146.366 25.08C145.86 25.32 145.366 25.5067 144.886 25.64C144.406 25.7733 143.846 25.9067 143.206 26.04C141.526 26.3867 140.313 26.5867 139.566 26.64C139.646 26.9067 140.046 27.2267 140.766 27.6C141.246 27.68 141.766 27.6133 142.326 27.4C142.913 27.16 143.513 26.9467 144.126 26.76C144.766 26.5467 145.38 26.4267 145.966 26.4C146.58 26.3733 147.153 26.6 147.686 27.08C147.9 27.56 148.073 27.84 148.206 27.92C148.34 28 148.46 28.04 148.566 28.04C148.673 28.04 148.793 28.08 148.926 28.16C149.06 28.24 149.246 28.5467 149.486 29.08C149.753 29.6133 149.686 30.12 149.286 30.6C148.913 31.08 148.326 31.4933 147.526 31.84C146.726 32.1867 145.793 32.4667 144.726 32.68C143.66 32.8933 142.593 33.04 141.526 33.12C139.126 33.3067 137.3 33.12 136.046 32.56C134.233 31.9467 133.06 30.7333 132.526 28.92C131.833 26.52 132.22 23.72 133.686 20.52C134.353 19.0267 135.406 17.4267 136.846 15.72C138.1 14.2267 139.5 13.1467 141.046 12.48C142.833 11.7067 144.7 11.3467 146.646 11.4C148.726 11.4533 150.166 12.36 150.966 14.12C151.366 15.0533 151.446 16.36 151.206 18.04C150.78 20.2267 150.22 21.7733 149.526 22.68C148.833 23.56 147.78 24.36 146.366 25.08ZM144.046 18.76C142.633 18.4667 141.526 19.2667 140.726 21.16C140.486 21.6667 140.3 22.2 140.166 22.76C141.073 22.8667 142.033 22.36 143.046 21.24C143.42 20.7867 143.7 20.3333 143.886 19.88C144.073 19.4 144.126 19.0267 144.046 18.76ZM170.023 13.84L170.183 13.88C170.236 13.88 170.263 13.8933 170.263 13.92C170.956 13.6533 171.53 13.8533 171.983 14.52C172.276 14.9733 172.503 15.6667 172.663 16.6C172.716 17.88 172.583 19.6533 172.263 21.92C171.65 26.5067 171.316 29.24 171.263 30.12C171.316 31.0533 170.743 31.6933 169.543 32.04C168.503 32.36 167.463 32.3467 166.423 32C165.33 31.6267 164.876 31.0533 165.063 30.28C164.85 30.68 164.636 30.96 164.423 31.12C164.21 31.3067 163.783 31.5467 163.143 31.84C162.53 32.16 161.65 32.4133 160.503 32.6C159.356 32.8133 158.21 32.8667 157.063 32.76C155.916 32.68 154.863 32.4 153.903 31.92C152.97 31.4667 152.343 30.7467 152.023 29.76C151.41 27.84 151.49 25.4 152.263 22.44C152.796 20.4933 153.756 18.7733 155.143 17.28C156.743 15.5733 158.556 14.16 160.583 13.04C162.103 12.2133 163.57 11.72 164.983 11.56C165.463 11.5067 165.876 11.52 166.223 11.6C166.596 11.68 166.983 11.76 167.383 11.84C167.81 11.92 168.21 12.04 168.583 12.2C169.543 12.6 170.023 13.1467 170.023 13.84ZM162.623 24.44C162.81 24.0667 162.956 23.6 163.063 23.04C163.196 22.48 163.37 21.8667 163.583 21.2C161.423 22.08 159.77 23.16 158.623 24.44C157.37 25.8533 157.45 26.8267 158.863 27.36C160.09 27.68 160.983 27.48 161.543 26.76C161.783 26.44 161.996 26.04 162.183 25.56C162.37 25.08 162.596 24.5867 162.863 24.08C162.783 24.2133 162.703 24.3333 162.623 24.44ZM177.308 14.44C177.682 13.48 178.202 12.76 178.868 12.28C179.562 11.7733 180.215 11.4667 180.828 11.36C181.468 11.2267 181.988 11.2933 182.388 11.56C182.815 11.8267 182.962 12.24 182.828 12.8C183.335 12.2933 184.068 11.8267 185.028 11.4C185.988 10.9733 186.748 10.68 187.308 10.52C187.868 10.36 188.348 10.28 188.748 10.28C189.628 10.3333 189.882 10.8133 189.508 11.72C189.962 11.8 190.295 12.0933 190.508 12.6C190.722 13.1067 190.748 13.6667 190.588 14.28C190.428 14.8933 190.068 15.4933 189.508 16.08C188.948 16.6667 188.188 17.0667 187.228 17.28C186.295 17.4933 185.508 17.9867 184.868 18.76C184.255 19.5067 183.708 20.44 183.228 21.56C182.428 23.4533 181.708 26.1333 181.068 29.6C180.855 30.8533 179.988 31.9067 178.468 32.76C177.028 33.5867 175.708 33.8267 174.508 33.48C173.148 33.1067 172.548 32.1067 172.708 30.48C172.762 29.3333 173.108 27.8133 173.748 25.92C174.388 24 174.882 22.56 175.228 21.6C175.575 20.6133 175.815 19.8667 175.948 19.36L177.308 14.44ZM195.727 13.68C197.514 12.96 198.714 12.9467 199.327 13.64C199.647 14.0133 199.807 14.5333 199.807 15.2V15.4C200.794 14.2533 202.514 13.2933 204.967 12.52C207.554 11.72 209.687 11.4933 211.367 11.84C213.554 12.2933 214.78 13.72 215.047 16.12C215.26 18.1467 214.794 20.72 213.647 23.84C213.274 24.64 212.98 25.2933 212.767 25.8C212.58 26.28 212.407 26.72 212.247 27.12C211.9 27.8667 211.354 28.76 210.607 29.8C210.18 30.6 209.514 31.2133 208.607 31.64C207.727 32.0667 206.847 32.3067 205.967 32.36C205.114 32.44 204.407 32.3067 203.847 31.96C203.287 31.64 203.127 31.12 203.367 30.4C203.98 28.7467 204.487 27.24 204.887 25.88C205.287 24.52 205.7 23.36 206.127 22.4C206.527 21.04 206.58 20.1867 206.287 19.84C206.047 19.5733 205.634 19.6133 205.047 19.96C204.54 20.28 204.18 20.6533 203.967 21.08C203.487 21.4267 202.58 22.8133 201.247 25.24C200.874 25.9067 200.5 26.5733 200.127 27.24C199.78 27.88 199.447 28.48 199.127 29.04C198.834 29.6 198.567 30.0667 198.327 30.44C198.114 30.8133 197.914 31.0533 197.727 31.16C197.567 31.2933 197.42 31.3733 197.287 31.4C197.18 31.4533 197.087 31.5067 197.007 31.56C196.927 31.6133 196.86 31.7867 196.807 32.08C196.7 32.6933 196.06 33.1467 194.887 33.44C192.994 33.92 191.287 33.84 189.767 33.2C189.26 32.9867 188.86 32.6933 188.567 32.32C187.954 31.0933 189.007 26.92 191.727 19.8C192.687 17.2933 193.314 15.8 193.607 15.32C194.274 14.3067 194.7 13.7333 194.887 13.6C195.1 13.4667 195.38 13.4933 195.727 13.68Z" fill="white"/>
</svg>
